<?xml version="1.0" standalone="yes"?>
<svg xmlns="http://www.w3.org/2000/svg" width="600" height="598">
<path style="fill:#000000; stroke:none;" d="M169.285 93.1366C166.24 94.7435 165.895 100.051 165.116 103C162.922 111.303 159.784 119.446 155.691 127C144.323 147.982 125.24 166.635 103 175.796C96.1118 178.634 89.1248 180.528 82.0046 182.644C79.7071 183.327 75.8497 184.612 76.7515 187.816C77.9199 191.966 88.446 192.827 92 194.001C105.43 198.438 118.188 204.918 128.999 214.134C144.666 227.49 156.393 244.584 163.302 264C164.567 267.557 165.856 282.882 171.741 281.11C175.046 280.114 175.21 274.724 175.895 272C177.946 263.851 181.014 255.389 185.029 248C196.674 226.564 215.15 207.616 238 198.204C242.55 196.329 265.223 191.668 264.534 186.184C264.03 182.175 255.046 181.628 252 180.656C238.382 176.31 226.338 170.376 215 161.575C197.746 148.182 184.98 129.673 178.004 109C176.903 105.737 175.108 90.0635 169.285 93.1366M416 92C407.964 122.981 388.569 141.325 358 150L358 153C376.377 158.176 392.205 166.01 403.7 182C408.35 188.469 412.564 209.71 420 211C422.85 189.851 437.682 171.081 456 160.862C463.02 156.946 471.161 155.948 478 152C473.381 147.147 464.991 146.618 459 143.63C448.745 138.515 439.688 131.094 432.681 122C427.431 115.186 423.535 94.441 416 92z"/>
<path style="fill:#000000; stroke:none;" d="M309.147 204.032C304.38 206.739 304.299 216.225 303.105 221C299.531 235.297 293.961 249.004 287.058 262C269.265 295.497 238.668 323.813 204 339.138C192.078 344.408 179.649 348.091 167 351.116C162.901 352.096 156.532 353.193 157.542 358.96C158.476 364.29 165.826 364.588 170 365.627C182.327 368.693 194.478 372.341 206 377.781C248.006 397.612 281.044 433.605 297.424 477C301.23 487.084 302.481 497.978 306.147 507.981C307.43 511.48 311.093 514.129 314.772 511.968C319.363 509.269 319.431 499.677 320.63 495C324.213 481.016 329.649 467.803 336.258 455C353.761 421.093 384.91 391.942 420 376.873C432.016 371.712 444.288 367.834 457 364.881C461.126 363.923 467.094 362.732 466.133 357.04C465.232 351.698 458.181 351.401 454 350.374C441.662 347.344 429.532 343.663 418 338.219C376.566 318.661 341.619 282.585 326.345 239C322.8 228.885 321.243 218.006 317.656 208.019C316.38 204.467 312.878 201.914 309.147 204.032z"/>
</svg>
